<?xml version="1.0" encoding="utf-8"?>
<!-- Generator: Adobe Illustrator 24.0.2, SVG Export Plug-In . SVG Version: 6.00 Build 0)  -->
<svg version="1.1"
	 id="svg2" inkscape:output_extension="org.inkscape.output.svg.inkscape" inkscape:version="0.46" sodipodi:docname="logo_UA_tekst_kl.svg" sodipodi:version="0.32" xmlns:cc="http://creativecommons.org/ns#" xmlns:dc="http://purl.org/dc/elements/1.1/" xmlns:inkscape="http://www.inkscape.org/namespaces/inkscape" xmlns:rdf="http://www.w3.org/1999/02/22-rdf-syntax-ns#" xmlns:sodipodi="http://sodipodi.sourceforge.net/DTD/sodipodi-0.dtd" xmlns:svg="http://www.w3.org/2000/svg"
	 xmlns="http://www.w3.org/2000/svg" xmlns:xlink="http://www.w3.org/1999/xlink" x="0px" y="0px" viewBox="0 0 409.1313 67.6135"
	 style="enable-background:new 0 0 409.1313 67.6135;" xml:space="preserve">
<style type="text/css">
	.st0{fill:none;stroke:#3864AD;stroke-width:2.1155;stroke-miterlimit:10;}
	.st1{fill:#1D1D1B;}
</style>
<g>
	<polyline class="st0" points="1.3526,41.7109 225.9304,41.7109 240.0024,27.6271 270.6538,27.6271 277.2198,22.4127 
		282.5203,22.4127 282.5203,17.312 286.8409,17.3138 286.8414,0 286.8414,17.312 290.7355,17.312 290.8766,22.542 296.3534,22.5185 
		302.5119,27.5605 333.4219,27.5605 347.9249,41.6992 407.3474,41.6992 	"/>
	<g>
		<path class="st1" d="M1.5991,25.533h1.5098v9.8398h5.3623v1.2642H1.5991V25.533z"/>
		<path class="st1" d="M16.3213,28.1062c1.1553,0,2.0391,0.3745,2.6514,1.123c0.6123,0.749,0.9185,1.832,0.9185,3.25
			c0,1.4233-0.3052,2.5078-0.915,3.2539c-0.6099,0.7466-1.4946,1.1196-2.6548,1.1196c-1.1553,0-2.0381-0.373-2.6479-1.1196
			c-0.6099-0.7461-0.9146-1.8306-0.9146-3.2539c0-1.418,0.3047-2.501,0.9146-3.25C14.2832,28.4807,15.166,28.1062,16.3213,28.1062z
			 M16.3213,29.2664c-0.6943,0-1.2197,0.2705-1.5767,0.811c-0.3574,0.5405-0.5356,1.3413-0.5356,2.4019
			c0,1.0562,0.1782,1.856,0.5356,2.3989c0.3569,0.543,0.8823,0.8145,1.5767,0.8145c0.6992,0,1.2271-0.2715,1.584-0.8145
			s0.5356-1.3428,0.5356-2.3989c0-1.0605-0.1787-1.8613-0.5356-2.4019S17.0205,29.2664,16.3213,29.2664z"/>
		<path class="st1" d="M31.563,30.0252c-0.293-0.228-0.5903-0.394-0.8926-0.4985c-0.3027-0.104-0.6348-0.1558-0.9966-0.1558
			c-0.853,0-1.5049,0.2676-1.9561,0.8032c-0.4512,0.5352-0.6768,1.3086-0.6768,2.3203v4.1426h-1.376v-8.3301h1.376v1.6289
			c0.228-0.5898,0.5786-1.0425,1.0522-1.3574c0.4736-0.3145,1.0352-0.4722,1.6846-0.4722c0.3369,0,0.6519,0.0425,0.9443,0.1265
			c0.2925,0.0845,0.5728,0.2158,0.8408,0.394V30.0252z"/>
		<path class="st1" d="M42.689,31.4753v5.1616h-1.376v-5.1616c0-0.7485-0.1318-1.2988-0.3945-1.6509s-0.6743-0.5283-1.2344-0.5283
			c-0.6396,0-1.1318,0.2271-1.4766,0.6807c-0.3442,0.4536-0.5166,1.1045-0.5166,1.9521v4.708h-1.3687v-8.3301h1.3687v1.2495
			c0.2427-0.4756,0.5728-0.8364,0.9893-1.082c0.4165-0.2451,0.9097-0.3682,1.48-0.3682c0.8477,0,1.481,0.2788,1.8999,0.8369
			C42.479,29.5007,42.689,30.345,42.689,31.4753z"/>
		<path class="st1" d="M53.7236,28.5974v1.3384c-0.3916-0.228-0.7856-0.3989-1.1821-0.5132
			c-0.397-0.1138-0.8008-0.1709-1.2124-0.1709c-0.6201,0-1.082,0.1006-1.3872,0.3013c-0.3047,0.2007-0.4575,0.5068-0.4575,0.9185
			c0,0.3721,0.1143,0.6494,0.3423,0.833s0.7959,0.3618,1.7031,0.5356l0.5503,0.104c0.6792,0.1289,1.1938,0.3867,1.5435,0.7734
			s0.5244,0.8901,0.5244,1.5098c0,0.8232-0.293,1.4663-0.8779,1.9302c-0.585,0.4634-1.3979,0.6953-2.4395,0.6953
			c-0.4116,0-0.8428-0.0435-1.2939-0.1304c-0.4512-0.0864-0.9395-0.2168-1.4653-0.3901v-1.4136
			c0.5107,0.2632,0.999,0.46,1.4653,0.5913c0.4658,0.1318,0.9072,0.1973,1.3237,0.1973c0.605,0,1.0737-0.1226,1.4058-0.3682
			s0.4985-0.5889,0.4985-1.0303c0-0.6343-0.6074-1.0732-1.8223-1.3164l-0.0596-0.0146l-0.5132-0.104
			c-0.7886-0.1538-1.3638-0.4131-1.7256-0.7773c-0.3618-0.3643-0.543-0.8613-0.543-1.4912c0-0.7983,0.2705-1.4141,0.811-1.8481
			c0.54-0.4336,1.311-0.6509,2.313-0.6509c0.4458,0,0.875,0.041,1.2866,0.123C52.9229,28.3108,53.3271,28.4334,53.7236,28.5974z"/>
		<path class="st1" d="M66.4136,32.1301v0.6689h-5.9277v0.0449c0,0.9072,0.2368,1.6089,0.7104,2.1045
			c0.4731,0.4961,1.1416,0.7441,2.0044,0.7441c0.436,0,0.8921-0.0698,1.3682-0.2085s0.9844-0.3496,1.5249-0.6323v1.3613
			c-0.521,0.2134-1.0229,0.373-1.5063,0.4795s-0.9507,0.1602-1.4019,0.1602c-1.2939,0-2.3057-0.3882-3.0342-1.1641
			c-0.729-0.7759-1.0938-1.8457-1.0938-3.2095c0-1.3286,0.3574-2.3896,1.0713-3.1831c0.7139-0.793,1.666-1.1899,2.856-1.1899
			c1.061,0,1.8975,0.3599,2.5103,1.0786C66.1074,29.9036,66.4136,30.8855,66.4136,32.1301z M65.0449,31.7283
			c-0.02-0.8032-0.2095-1.4141-0.5688-1.8335c-0.3599-0.4189-0.8765-0.6284-1.5508-0.6284c-0.6597,0-1.2026,0.2183-1.6289,0.6548
			c-0.4263,0.436-0.6792,1.041-0.7583,1.8145L65.0449,31.7283z"/>
		<path class="st1" d="M77.8872,31.4753v5.1616h-1.376v-5.1616c0-0.7485-0.1318-1.2988-0.3945-1.6509s-0.6743-0.5283-1.2344-0.5283
			c-0.6396,0-1.1318,0.2271-1.4766,0.6807c-0.3442,0.4536-0.5166,1.1045-0.5166,1.9521v4.708h-1.3687v-8.3301h1.3687v1.2495
			c0.2427-0.4756,0.5728-0.8364,0.9893-1.082c0.4165-0.2451,0.9097-0.3682,1.48-0.3682c0.8477,0,1.481,0.2788,1.8999,0.8369
			C77.6772,29.5007,77.8872,30.345,77.8872,31.4753z"/>
		<path class="st1" d="M88.9219,28.5974v1.3384c-0.3916-0.228-0.7856-0.3989-1.1821-0.5132
			c-0.397-0.1138-0.8008-0.1709-1.2124-0.1709c-0.6201,0-1.082,0.1006-1.3872,0.3013c-0.3047,0.2007-0.4575,0.5068-0.4575,0.9185
			c0,0.3721,0.1143,0.6494,0.3423,0.833s0.7959,0.3618,1.7031,0.5356l0.5503,0.104c0.6792,0.1289,1.1938,0.3867,1.5435,0.7734
			s0.5244,0.8901,0.5244,1.5098c0,0.8232-0.293,1.4663-0.8779,1.9302c-0.585,0.4634-1.3979,0.6953-2.4395,0.6953
			c-0.4116,0-0.8428-0.0435-1.2939-0.1304c-0.4512-0.0864-0.9395-0.2168-1.4653-0.3901v-1.4136
			c0.5107,0.2632,0.999,0.46,1.4653,0.5913c0.4658,0.1318,0.9072,0.1973,1.3237,0.1973c0.605,0,1.0737-0.1226,1.4058-0.3682
			s0.4985-0.5889,0.4985-1.0303c0-0.6343-0.6074-1.0732-1.8223-1.3164l-0.0596-0.0146l-0.5132-0.104
			c-0.7886-0.1538-1.3638-0.4131-1.7256-0.7773c-0.3618-0.3643-0.543-0.8613-0.543-1.4912c0-0.7983,0.2705-1.4141,0.811-1.8481
			c0.54-0.4336,1.311-0.6509,2.313-0.6509c0.4458,0,0.875,0.041,1.2866,0.123C88.1211,28.3108,88.5254,28.4334,88.9219,28.5974z"/>
		<path class="st1" d="M100.9644,36.2131c-0.3672,0.2134-0.7451,0.373-1.1343,0.4795s-0.7871,0.1602-1.1938,0.1602
			c-1.2891,0-2.2969-0.3867-3.0229-1.1602c-0.7266-0.7739-1.0898-1.8447-1.0898-3.2134c0-1.3682,0.3633-2.4395,1.0898-3.2129
			c0.7261-0.7734,1.7339-1.1602,3.0229-1.1602c0.4019,0,0.7935,0.0522,1.1753,0.1563s0.7661,0.2651,1.1528,0.4834v1.4355
			c-0.3623-0.3223-0.7251-0.5552-1.0898-0.6992c-0.3643-0.1436-0.7769-0.2158-1.2383-0.2158c-0.8579,0-1.5171,0.2778-1.978,0.833
			c-0.4614,0.5557-0.6919,1.3491-0.6919,2.3799c0,1.0264,0.2319,1.8188,0.6953,2.3765c0.4639,0.5576,1.1221,0.8369,1.9746,0.8369
			c0.4761,0,0.9023-0.0732,1.2793-0.2197c0.377-0.146,0.7266-0.373,1.0488-0.6802V36.2131z"/>
		<path class="st1" d="M112.6333,31.4753v5.1616h-1.376v-5.1616c0-0.7485-0.1318-1.2988-0.3945-1.6509s-0.6743-0.5283-1.2344-0.5283
			c-0.6396,0-1.1318,0.2271-1.4766,0.6807c-0.3442,0.4536-0.5166,1.1045-0.5166,1.9521v4.708h-1.3687V25.0642h1.3687v4.4922
			c0.2427-0.4756,0.5728-0.8364,0.9893-1.082c0.4165-0.2451,0.9097-0.3682,1.48-0.3682c0.8477,0,1.481,0.2788,1.8999,0.8369
			C112.4233,29.5007,112.6333,30.345,112.6333,31.4753z"/>
		<path class="st1" d="M118.0596,33.4836V28.322h1.3687v5.1616c0,0.7485,0.1323,1.2988,0.3979,1.6509
			c0.2651,0.3521,0.6753,0.5283,1.231,0.5283c0.644,0,1.1377-0.2271,1.48-0.6807c0.3418-0.4536,0.5132-1.1045,0.5132-1.9521v-4.708
			h1.376v8.3149h-1.376v-1.2495c-0.2432,0.481-0.5742,0.8452-0.9932,1.0933s-0.9087,0.3721-1.4688,0.3721
			c-0.853,0-1.4873-0.2788-1.9038-0.8369C118.2681,35.4583,118.0596,34.614,118.0596,33.4836z"/>
		<path class="st1" d="M132.1831,33.6174c0,0.6147,0.1128,1.0786,0.3384,1.3906c0.2256,0.3125,0.5591,0.4688,1.0005,0.4688h1.5991
			v1.1602h-1.7329c-0.8184,0-1.4517-0.2627-1.9004-0.7886c-0.4487-0.5254-0.6733-1.269-0.6733-2.231v-7.564h-2.1938v-1.0708h3.5625
			V33.6174z"/>
		<path class="st1" d="M147.0435,32.1301v0.6689h-5.9277v0.0449c0,0.9072,0.2368,1.6089,0.7104,2.1045
			c0.4731,0.4961,1.1416,0.7441,2.0044,0.7441c0.436,0,0.8921-0.0698,1.3682-0.2085s0.9844-0.3496,1.5249-0.6323v1.3613
			c-0.521,0.2134-1.0229,0.373-1.5063,0.4795s-0.9507,0.1602-1.4019,0.1602c-1.2939,0-2.3057-0.3882-3.0342-1.1641
			c-0.729-0.7759-1.0938-1.8457-1.0938-3.2095c0-1.3286,0.3574-2.3896,1.0713-3.1831c0.7139-0.793,1.666-1.1899,2.856-1.1899
			c1.061,0,1.8975,0.3599,2.5103,1.0786C146.7373,29.9036,147.0435,30.8855,147.0435,32.1301z M145.6748,31.7283
			c-0.02-0.8032-0.2095-1.4141-0.5688-1.8335c-0.3599-0.4189-0.8765-0.6284-1.5508-0.6284c-0.6597,0-1.2026,0.2183-1.6289,0.6548
			c-0.4263,0.436-0.6792,1.041-0.7583,1.8145L145.6748,31.7283z"/>
	</g>
	<g>
		<path class="st1" d="M312.1724,51.1848v1.5244c-0.4561-0.292-0.9131-0.5127-1.3721-0.6621
			c-0.459-0.1484-0.9209-0.2227-1.3867-0.2227c-0.709,0-1.2695,0.165-1.6807,0.4941c-0.4121,0.3301-0.6182,0.7754-0.6182,1.335
			c0,0.4912,0.1357,0.8652,0.4063,1.123c0.2695,0.2578,0.7744,0.4736,1.5127,0.6475l0.7891,0.1787
			c1.041,0.2432,1.7998,0.624,2.2754,1.1455c0.4756,0.5205,0.7139,1.2295,0.7139,2.127c0,1.0557-0.3271,1.8613-0.9814,2.417
			s-1.6064,0.833-2.8564,0.833c-0.5205,0-1.043-0.0557-1.5693-0.167c-0.5254-0.1123-1.0527-0.2793-1.584-0.5029v-1.5986
			c0.5703,0.3623,1.1094,0.627,1.6182,0.7959c0.5078,0.1689,1.0195,0.2529,1.5352,0.2529c0.7588,0,1.3486-0.1699,1.7705-0.5098
			c0.4209-0.3398,0.6318-0.8145,0.6318-1.4238c0-0.5557-0.1445-0.9795-0.4346-1.2725c-0.29-0.292-0.7949-0.5176-1.5137-0.6768
			l-0.8037-0.1855c-1.0313-0.2334-1.7793-0.585-2.2461-1.0557c-0.4658-0.4717-0.6982-1.1035-0.6982-1.8975
			c0-0.9912,0.333-1.7852,1-2.3828s1.5527-0.8965,2.6592-0.8965c0.4258,0,0.875,0.0479,1.3457,0.1445
			S311.6519,50.9915,312.1724,51.1848z"/>
		<path class="st1" d="M324.147,61.4856c-0.3662,0.2129-0.7441,0.373-1.1338,0.4795s-0.7871,0.1602-1.1934,0.1602
			c-1.29,0-2.2969-0.3867-3.0234-1.1602s-1.0898-1.8447-1.0898-3.2129c0-1.3691,0.3633-2.4395,1.0898-3.2129
			s1.7334-1.1602,3.0234-1.1602c0.4014,0,0.793,0.0518,1.1748,0.1563c0.3818,0.1035,0.7656,0.2646,1.1523,0.4834v1.4346
			c-0.3613-0.3223-0.7246-0.5547-1.0889-0.6982c-0.3643-0.1445-0.7773-0.2158-1.2383-0.2158c-0.8584,0-1.5176,0.2773-1.9785,0.833
			c-0.4609,0.5547-0.6914,1.3486-0.6914,2.3799c0,1.0264,0.2314,1.8184,0.6953,2.376c0.4629,0.5576,1.1211,0.8369,1.9746,0.8369
			c0.4756,0,0.9023-0.0732,1.2793-0.2197c0.376-0.1465,0.7256-0.373,1.0479-0.6807V61.4856z"/>
		<path class="st1" d="M335.8159,56.7483v5.1611h-1.376v-5.1611c0-0.749-0.1309-1.2998-0.3936-1.6514
			c-0.2627-0.3525-0.6748-0.5283-1.2354-0.5283c-0.6396,0-1.1309,0.2266-1.4756,0.6807s-0.5176,1.1045-0.5176,1.9521v4.708h-1.3682
			V50.3372h1.3682v4.4922c0.2432-0.4766,0.5732-0.8369,0.9893-1.082c0.417-0.2461,0.9102-0.3682,1.4805-0.3682
			c0.8477,0,1.4814,0.2783,1.9004,0.8359C335.6069,54.7737,335.8159,55.6174,335.8159,56.7483z"/>
		<path class="st1" d="M343.5122,58.8899c0,0.6152,0.1123,1.0781,0.3379,1.3906s0.5586,0.4688,1,0.4688h1.5996v1.1602h-1.7334
			c-0.8174,0-1.4512-0.2627-1.9004-0.7881c-0.4482-0.5254-0.6729-1.2695-0.6729-2.2314v-7.5635h-2.1934v-1.0713h3.5625V58.8899z"/>
		<path class="st1" d="M358.3726,57.4026v0.6689h-5.9277v0.0449c0,0.9072,0.2363,1.6094,0.71,2.1045
			c0.4736,0.4961,1.1416,0.7441,2.0049,0.7441c0.4355,0,0.8926-0.0693,1.3682-0.208c0.4766-0.1396,0.9844-0.3496,1.5244-0.6328
			v1.3613c-0.5205,0.2129-1.0225,0.373-1.5059,0.4795s-0.9512,0.1602-1.4014,0.1602c-1.2949,0-2.3057-0.3877-3.0352-1.1641
			c-0.7285-0.7764-1.0928-1.8457-1.0928-3.209c0-1.3291,0.3564-2.3896,1.0703-3.1836c0.7148-0.793,1.666-1.1895,2.8564-1.1895
			c1.0605,0,1.8975,0.3594,2.5098,1.0781S358.3726,56.1575,358.3726,57.4026z M357.0044,57.0012
			c-0.0205-0.8037-0.21-1.415-0.5693-1.834s-0.877-0.6279-1.5508-0.6279c-0.6592,0-1.2021,0.2178-1.6289,0.6543
			s-0.6797,1.041-0.7588,1.8145L357.0044,57.0012z"/>
		<path class="st1" d="M368.9761,53.8694v1.3389c-0.3916-0.2275-0.7861-0.3994-1.1826-0.5127
			c-0.3965-0.1143-0.8008-0.1719-1.2119-0.1719c-0.6201,0-1.082,0.1006-1.3867,0.3018c-0.3057,0.2012-0.458,0.5068-0.458,0.918
			c0,0.3721,0.1143,0.6504,0.3428,0.833c0.2275,0.1836,0.7949,0.3623,1.7031,0.5361l0.5498,0.1035
			c0.6797,0.1289,1.1934,0.3867,1.543,0.7734s0.5244,0.8906,0.5244,1.5098c0,0.8232-0.292,1.4668-0.877,1.9307
			s-1.3984,0.6953-2.4395,0.6953c-0.4121,0-0.8438-0.0439-1.2949-0.1299c-0.4512-0.0869-0.9395-0.2168-1.4648-0.3906v-1.4131
			c0.5107,0.2627,0.999,0.46,1.4648,0.5908c0.4668,0.1318,0.9082,0.1973,1.3242,0.1973c0.6055,0,1.0732-0.123,1.4063-0.3682
			c0.332-0.2451,0.498-0.5889,0.498-1.0303c0-0.6348-0.6074-1.0732-1.8223-1.3164l-0.0596-0.0146l-0.5137-0.1045
			c-0.7881-0.1533-1.3633-0.4121-1.7246-0.7764c-0.3623-0.3652-0.543-0.8623-0.543-1.4912c0-0.7988,0.2695-1.415,0.8105-1.8486
			c0.54-0.4336,1.3115-0.6504,2.3125-0.6504c0.4463,0,0.875,0.041,1.2871,0.1221
			C368.1753,53.5833,368.5796,53.7063,368.9761,53.8694z"/>
		<path class="st1" d="M373.6851,53.5793h1.3535l1.4502,6.7314l1.1904-4.2988h1.167l1.2051,4.2988l1.4502-6.7314h1.3535
			l-1.9482,8.3301h-1.3086l-1.332-4.5664l-1.3232,4.5664h-1.3096L373.6851,53.5793z"/>
		<path class="st1" d="M387.5591,53.5793h3.5029v7.2666h2.7148v1.0635h-6.7979V60.846h2.7139v-6.2031h-2.1338V53.5793z
			 M389.6929,50.3372h1.3691v1.7324h-1.3691V50.3372z"/>
		<path class="st1" d="M404.9546,61.3743c0,1.249-0.2949,2.1963-0.8857,2.8408c-0.5898,0.6445-1.457,0.9668-2.6025,0.9668
			c-0.377,0-0.7715-0.0352-1.1826-0.1045c-0.4121-0.0693-0.8232-0.1709-1.2344-0.3047v-1.3535
			c0.4854,0.2275,0.9268,0.3965,1.3232,0.5059c0.3965,0.1094,0.7617,0.1631,1.0938,0.1631c0.7383,0,1.2764-0.2002,1.6143-0.6016
			c0.3369-0.4023,0.5049-1.0391,0.5049-1.9121v-0.0596v-0.9297c-0.2178,0.4668-0.5156,0.8135-0.8926,1.042
			c-0.376,0.2275-0.835,0.3418-1.375,0.3418c-0.9727,0-1.748-0.3896-2.3281-1.168s-0.8701-1.8193-0.8701-3.123
			c0-1.3096,0.29-2.3535,0.8701-3.1318s1.3555-1.167,2.3281-1.167c0.5352,0,0.9883,0.1064,1.3604,0.3193s0.6748,0.543,0.9072,0.9893
			v-1.0781h1.3691V61.3743z M403.5854,57.678c0-1.0264-0.167-1.8066-0.502-2.3398c-0.334-0.5322-0.8213-0.7988-1.4609-0.7988
			c-0.6699,0-1.1807,0.2666-1.5322,0.7988c-0.3525,0.5332-0.5283,1.3135-0.5283,2.3398s0.1777,1.8086,0.5322,2.3457
			c0.3545,0.5381,0.8691,0.8076,1.543,0.8076c0.6299,0,1.1123-0.2705,1.4463-0.8105
			C403.4185,59.4797,403.5854,58.6995,403.5854,57.678z"/>
	</g>
</g>
</svg>
