<?xml version="1.0" encoding="utf-8"?>
<!-- Generator: Adobe Illustrator 24.0.2, SVG Export Plug-In . SVG Version: 6.00 Build 0)  -->
<svg version="1.1"
	 id="svg2" inkscape:output_extension="org.inkscape.output.svg.inkscape" inkscape:version="0.46" sodipodi:docname="logo_UA_tekst_kl.svg" sodipodi:version="0.32" xmlns:cc="http://creativecommons.org/ns#" xmlns:dc="http://purl.org/dc/elements/1.1/" xmlns:inkscape="http://www.inkscape.org/namespaces/inkscape" xmlns:rdf="http://www.w3.org/1999/02/22-rdf-syntax-ns#" xmlns:sodipodi="http://sodipodi.sourceforge.net/DTD/sodipodi-0.dtd" xmlns:svg="http://www.w3.org/2000/svg"
	 xmlns="http://www.w3.org/2000/svg" xmlns:xlink="http://www.w3.org/1999/xlink" x="0px" y="0px" viewBox="0 0 303.0352 50.0008"
	 style="enable-background:new 0 0 303.0352 50.0008;" xml:space="preserve">
<style type="text/css">
	.st0{fill:none;stroke:#3864AD;stroke-width:1.5644;stroke-miterlimit:10;}
	.st1{fill:#1D1D1B;}
</style>
<g>
	<polyline class="st0" points="1.0007,30.8456 167.0779,30.8456 177.4843,20.4305 200.1513,20.4305 205.0069,16.5744 
		208.9267,16.5744 208.9267,12.8024 212.1218,12.8037 212.1222,0 212.1222,12.8024 215.0019,12.8024 215.1062,16.67 
		219.1564,16.6526 223.7106,20.3812 246.5689,20.3812 257.294,30.8369 301.2374,30.8369 	"/>
	<g>
		<path class="st1" d="M1.1826,18.8817h1.1162v7.2764h3.9658v0.9346h-5.082V18.8817z"/>
		<path class="st1" d="M12.126,20.7845c0.854,0,1.5078,0.2769,1.9604,0.8306c0.4531,0.5537,0.6792,1.355,0.6792,2.4033
			c0,1.0527-0.2256,1.8545-0.6763,2.4053c-0.4512,0.5527-1.1055,0.8281-1.9634,0.8281c-0.8545,0-1.5073-0.2754-1.958-0.8281
			c-0.4512-0.5508-0.6768-1.3525-0.6768-2.4053c0-1.0483,0.2256-1.8496,0.6768-2.4033
			C10.6187,21.0614,11.2715,20.7845,12.126,20.7845z M12.126,21.6424c-0.5137,0-0.9023,0.2002-1.166,0.5996
			c-0.2642,0.3999-0.396,0.9922-0.396,1.7764c0,0.7813,0.1318,1.3726,0.396,1.7739c0.2637,0.4014,0.6523,0.6021,1.166,0.6021
			c0.5166,0,0.9072-0.2007,1.1714-0.6021s0.396-0.9927,0.396-1.7739c0-0.7842-0.1318-1.3765-0.396-1.7764
			C13.0332,21.8426,12.6426,21.6424,12.126,21.6424z"/>
		<path class="st1" d="M23.4609,22.2034c-0.2163-0.1685-0.4365-0.2915-0.6602-0.3682c-0.2236-0.0771-0.4692-0.1157-0.7368-0.1157
			c-0.6309,0-1.1128,0.1982-1.4468,0.5942c-0.3335,0.396-0.5005,0.9678-0.5005,1.7158v3.063h-1.0171v-6.1597h1.0171v1.2046
			c0.1689-0.436,0.4282-0.771,0.7783-1.0039c0.3501-0.2324,0.7656-0.3491,1.2461-0.3491c0.249,0,0.4819,0.0313,0.6982,0.0938
			c0.2163,0.062,0.4233,0.1592,0.6216,0.2915V22.2034z"/>
		<path class="st1" d="M31.7446,23.2762v3.8164h-1.0171v-3.8164c0-0.5537-0.0972-0.9609-0.2915-1.2212s-0.499-0.3906-0.9131-0.3906
			c-0.4731,0-0.8369,0.168-1.0918,0.5034s-0.3823,0.8169-0.3823,1.4438v3.481h-1.0122v-6.1597h1.0122v0.9243
			c0.1797-0.3521,0.4233-0.6191,0.7314-0.8003c0.3081-0.1816,0.6729-0.2725,1.0947-0.2725c0.627,0,1.0952,0.2065,1.4053,0.6187
			C31.5898,21.8158,31.7446,22.4403,31.7446,23.2762z"/>
		<path class="st1" d="M39.9648,21.1478v0.9897c-0.2896-0.1685-0.5811-0.2949-0.8745-0.3794s-0.5923-0.1265-0.8965-0.1265
			c-0.4585,0-0.8003,0.0742-1.0259,0.2227s-0.3384,0.375-0.3384,0.6792c0,0.2749,0.0845,0.4805,0.2534,0.6162
			c0.1685,0.1357,0.5884,0.2676,1.2593,0.396l0.4072,0.0767c0.502,0.0957,0.8823,0.2861,1.1411,0.5723
			c0.2583,0.2861,0.3877,0.6582,0.3877,1.1162c0,0.6089-0.2163,1.0835-0.6489,1.4272c-0.4326,0.3428-1.0342,0.5137-1.8042,0.5137
			c-0.3042,0-0.6235-0.0322-0.957-0.0957c-0.3335-0.0645-0.6948-0.1602-1.0835-0.2891v-1.0444
			c0.3779,0.1943,0.7388,0.3403,1.0835,0.4375s0.6709,0.145,0.979,0.145c0.4473,0,0.7939-0.0908,1.0396-0.272
			s0.3687-0.4351,0.3687-0.7617c0-0.4692-0.4492-0.7935-1.3477-0.9731l-0.0439-0.0112l-0.3794-0.0771
			c-0.583-0.1133-1.0083-0.3052-1.2759-0.5747c-0.2681-0.2695-0.4019-0.6367-0.4019-1.1025c0-0.5903,0.1997-1.0459,0.5996-1.3667
			c0.3994-0.3208,0.9697-0.4814,1.7104-0.4814c0.3301,0,0.647,0.0303,0.9517,0.0908
			C39.3726,20.9359,39.6714,21.0267,39.9648,21.1478z"/>
		<path class="st1" d="M49.4077,23.7601v0.4951h-4.3838v0.0327c0,0.6714,0.1753,1.1899,0.5254,1.5566s0.8442,0.5498,1.4824,0.5498
			c0.3223,0,0.6597-0.0518,1.0117-0.1538c0.3521-0.1025,0.728-0.2583,1.1274-0.4673v1.0059
			c-0.3848,0.1582-0.7563,0.2754-1.1138,0.3545s-0.7031,0.1182-1.0366,0.1182c-0.957,0-1.7051-0.2871-2.2441-0.8604
			s-0.8086-1.3643-0.8086-2.373c0-0.9824,0.2642-1.7671,0.792-2.354c0.5283-0.5864,1.2324-0.8799,2.1123-0.8799
			c0.7847,0,1.4033,0.2661,1.856,0.7974C49.1812,22.1136,49.4077,22.8397,49.4077,23.7601z M48.3955,23.4632
			c-0.0146-0.5942-0.1548-1.0459-0.4209-1.356c-0.2656-0.3096-0.6479-0.4648-1.1465-0.4648c-0.4878,0-0.8892,0.1616-1.2046,0.4844
			s-0.5024,0.77-0.561,1.3418L48.3955,23.4632z"/>
		<path class="st1" d="M57.9468,23.2762v3.8164h-1.0171v-3.8164c0-0.5537-0.0972-0.9609-0.2915-1.2212s-0.499-0.3906-0.9131-0.3906
			c-0.4731,0-0.8369,0.168-1.0918,0.5034s-0.3823,0.8169-0.3823,1.4438v3.481h-1.0122v-6.1597h1.0122v0.9243
			c0.1797-0.3521,0.4233-0.6191,0.7314-0.8003c0.3081-0.1816,0.6729-0.2725,1.0947-0.2725c0.627,0,1.0952,0.2065,1.4053,0.6187
			C57.792,21.8158,57.9468,22.4403,57.9468,23.2762z"/>
		<path class="st1" d="M66.167,21.1478v0.9897c-0.2896-0.1685-0.5811-0.2949-0.8745-0.3794s-0.5923-0.1265-0.8965-0.1265
			c-0.4585,0-0.8003,0.0742-1.0259,0.2227s-0.3384,0.375-0.3384,0.6792c0,0.2749,0.0845,0.4805,0.2534,0.6162
			c0.1685,0.1357,0.5884,0.2676,1.2593,0.396l0.4072,0.0767c0.502,0.0957,0.8823,0.2861,1.1411,0.5723
			c0.2583,0.2861,0.3877,0.6582,0.3877,1.1162c0,0.6089-0.2163,1.0835-0.6489,1.4272c-0.4326,0.3428-1.0342,0.5137-1.8042,0.5137
			c-0.3042,0-0.6235-0.0322-0.957-0.0957c-0.3335-0.0645-0.6948-0.1602-1.0835-0.2891v-1.0444
			c0.3779,0.1943,0.7388,0.3403,1.0835,0.4375s0.6709,0.145,0.979,0.145c0.4473,0,0.7939-0.0908,1.0396-0.272
			s0.3687-0.4351,0.3687-0.7617c0-0.4692-0.4492-0.7935-1.3477-0.9731l-0.0439-0.0112l-0.3794-0.0771
			c-0.583-0.1133-1.0083-0.3052-1.2759-0.5747c-0.2681-0.2695-0.4019-0.6367-0.4019-1.1025c0-0.5903,0.1997-1.0459,0.5996-1.3667
			c0.3994-0.3208,0.9697-0.4814,1.7104-0.4814c0.3301,0,0.647,0.0303,0.9517,0.0908C65.5747,20.9359,65.8735,21.0267,66.167,21.1478
			z"/>
		<path class="st1" d="M75.1343,26.7791c-0.2715,0.1582-0.5508,0.2754-0.8389,0.3545c-0.2876,0.0791-0.582,0.1182-0.8828,0.1182
			c-0.9531,0-1.6982-0.2852-2.2354-0.8574c-0.5376-0.5718-0.8062-1.3638-0.8062-2.376c0-1.0117,0.2686-1.8037,0.8062-2.376
			c0.5371-0.5718,1.2822-0.8579,2.2354-0.8579c0.2974,0,0.5869,0.0386,0.8691,0.1157c0.2822,0.0767,0.5664,0.1963,0.8525,0.3574
			v1.0615c-0.2676-0.2383-0.5361-0.4106-0.8057-0.5171s-0.5747-0.1597-0.916-0.1597c-0.6343,0-1.1216,0.2056-1.4629,0.6162
			c-0.3408,0.4106-0.5112,0.9976-0.5112,1.7598c0,0.7593,0.1714,1.3447,0.5142,1.7573s0.8296,0.6187,1.46,0.6187
			c0.3521,0,0.6675-0.0547,0.9463-0.1621c0.2783-0.1079,0.5371-0.2759,0.7754-0.5029V26.7791z"/>
		<path class="st1" d="M83.8213,23.2762v3.8164h-1.0171v-3.8164c0-0.5537-0.0972-0.9609-0.2915-1.2212s-0.499-0.3906-0.9131-0.3906
			c-0.4731,0-0.8369,0.168-1.0918,0.5034s-0.3823,0.8169-0.3823,1.4438v3.481h-1.0122V18.535h1.0122v3.3223
			c0.1797-0.3521,0.4233-0.6191,0.7314-0.8003c0.3081-0.1816,0.6729-0.2725,1.0947-0.2725c0.627,0,1.0952,0.2065,1.4053,0.6187
			C83.6665,21.8158,83.8213,22.4403,83.8213,23.2762z"/>
		<path class="st1" d="M87.8916,24.7611v-3.8169h1.0122v3.8169c0,0.5537,0.0981,0.9609,0.2944,1.2212
			c0.1958,0.2603,0.4995,0.3896,0.9102,0.3896c0.4766,0,0.8413-0.167,1.0942-0.5024c0.2534-0.3354,0.3799-0.8169,0.3799-1.4438
			v-3.4814h1.0171v6.1484h-1.0171v-0.9233c-0.1797,0.355-0.4248,0.6245-0.7344,0.8071c-0.3101,0.1836-0.6719,0.2754-1.0864,0.2754
			c-0.6304,0-1.1001-0.2061-1.4077-0.6191C88.0459,26.2215,87.8916,25.597,87.8916,24.7611z"/>
		<path class="st1" d="M98.4048,24.8602c0,0.4546,0.083,0.7974,0.25,1.0283s0.4136,0.3467,0.7397,0.3467h1.1826v0.8574h-1.2817
			c-0.605,0-1.0732-0.1943-1.4048-0.583c-0.332-0.3882-0.498-0.938-0.498-1.6494v-5.5938H95.77v-0.792h2.6348V24.8602z"/>
		<path class="st1" d="M109.457,23.7601v0.4951h-4.3838v0.0327c0,0.6714,0.1753,1.1899,0.5254,1.5566s0.8442,0.5498,1.4824,0.5498
			c0.3223,0,0.6597-0.0518,1.0117-0.1538c0.3521-0.1025,0.728-0.2583,1.1274-0.4673v1.0059
			c-0.3848,0.1582-0.7563,0.2754-1.1138,0.3545s-0.7031,0.1182-1.0366,0.1182c-0.957,0-1.7051-0.2871-2.2441-0.8604
			s-0.8086-1.3643-0.8086-2.373c0-0.9824,0.2642-1.7671,0.792-2.354c0.5283-0.5864,1.2324-0.8799,2.1123-0.8799
			c0.7847,0,1.4033,0.2661,1.856,0.7974C109.2305,22.1136,109.457,22.8397,109.457,23.7601z M108.4448,23.4632
			c-0.0146-0.5942-0.1548-1.0459-0.4209-1.356c-0.2656-0.3096-0.6479-0.4648-1.1465-0.4648c-0.4878,0-0.8892,0.1616-1.2046,0.4844
			s-0.5024,0.77-0.561,1.3418L108.4448,23.4632z"/>
	</g>
	<g>
		<path class="st1" d="M230.8555,37.8514v1.127c-0.3379-0.2158-0.6758-0.3789-1.0156-0.4893
			c-0.3389-0.1104-0.6807-0.165-1.0254-0.165c-0.5244,0-0.9385,0.1221-1.2432,0.3662c-0.3037,0.2432-0.4561,0.5723-0.4561,0.9863
			c0,0.3633,0.0996,0.6406,0.2998,0.8311c0.1992,0.1904,0.5723,0.3506,1.1191,0.4785l0.583,0.1318
			c0.7695,0.1797,1.3311,0.4619,1.6826,0.8467c0.3525,0.3857,0.5283,0.9102,0.5283,1.5732c0,0.7813-0.2422,1.377-0.7256,1.7881
			c-0.4844,0.4102-1.1885,0.6152-2.1123,0.6152c-0.3848,0-0.7725-0.041-1.1611-0.123c-0.3887-0.083-0.7783-0.207-1.1709-0.3721
			v-1.1816c0.4219,0.2676,0.8203,0.4639,1.1963,0.5879c0.376,0.125,0.7539,0.1875,1.1357,0.1875c0.5605,0,0.9971-0.126,1.3086-0.377
			s0.4678-0.6025,0.4678-1.0537c0-0.4102-0.1074-0.7236-0.3223-0.9404c-0.2139-0.2158-0.5869-0.3828-1.1191-0.5l-0.5938-0.1377
			c-0.7627-0.1719-1.3164-0.4326-1.6611-0.7813c-0.3447-0.3477-0.5166-0.8154-0.5166-1.4023c0-0.7334,0.2461-1.3203,0.7393-1.7627
			c0.4932-0.4414,1.1484-0.6631,1.9668-0.6631c0.3154,0,0.6465,0.0361,0.9951,0.1074S230.4697,37.7078,230.8555,37.8514z"/>
		<path class="st1" d="M239.7686,45.4686c-0.2715,0.1572-0.5518,0.2764-0.8389,0.3545c-0.2881,0.0791-0.582,0.1182-0.8828,0.1182
			c-0.9541,0-1.6992-0.2861-2.2363-0.8574c-0.5371-0.5723-0.8057-1.3643-0.8057-2.376c0-1.0127,0.2686-1.8047,0.8057-2.376
			c0.5371-0.5723,1.2822-0.8584,2.2363-0.8584c0.2969,0,0.5859,0.0391,0.8691,0.1152c0.2822,0.0771,0.5664,0.1963,0.8525,0.3574
			v1.0615c-0.2686-0.2383-0.5371-0.4102-0.8066-0.5166s-0.5742-0.1592-0.915-0.1592c-0.6348,0-1.1221,0.2051-1.4629,0.6152
			c-0.3418,0.4111-0.5117,0.998-0.5117,1.7607c0,0.7588,0.1709,1.3447,0.5137,1.7568c0.3428,0.4131,0.8301,0.6191,1.4609,0.6191
			c0.3516,0,0.667-0.0547,0.9453-0.1621c0.2793-0.1084,0.5371-0.2764,0.7764-0.5039V45.4686z"/>
		<path class="st1" d="M248.4551,41.9647v3.8174h-1.0176v-3.8174c0-0.5527-0.0967-0.96-0.291-1.2207
			c-0.1943-0.2598-0.499-0.3906-0.9131-0.3906c-0.4727,0-0.8369,0.168-1.0918,0.5039c-0.2549,0.335-0.3818,0.8164-0.3818,1.4434
			v3.4814h-1.0127v-8.5576h1.0127v3.3213c0.1787-0.3516,0.4229-0.6182,0.7314-0.7998c0.3076-0.1816,0.6729-0.2725,1.0938-0.2725
			c0.627,0,1.0957,0.2061,1.4053,0.6191C248.3008,40.5047,248.4551,41.1287,248.4551,41.9647z"/>
		<path class="st1" d="M254.2158,43.5487c0,0.4551,0.083,0.7979,0.25,1.0293c0.167,0.2305,0.4131,0.3457,0.7402,0.3457h1.1816
			v0.8584h-1.2813c-0.6045,0-1.0732-0.1943-1.4053-0.583s-0.4971-0.9385-0.4971-1.6504v-5.5928h-1.623v-0.792h2.6348V43.5487z"/>
		<path class="st1" d="M265.2686,42.4491v0.4951h-4.3838v0.0332c0,0.6709,0.1748,1.1895,0.5254,1.5566
			c0.3496,0.3662,0.8438,0.5498,1.4824,0.5498c0.3223,0,0.6602-0.0518,1.0117-0.1543s0.7275-0.2588,1.1279-0.4678v1.0068
			c-0.3857,0.1572-0.7568,0.2764-1.1143,0.3545c-0.3574,0.0791-0.7031,0.1182-1.0371,0.1182c-0.9561,0-1.7041-0.2861-2.2432-0.8604
			s-0.8086-1.3652-0.8086-2.373c0-0.9824,0.2637-1.7676,0.792-2.3545c0.5273-0.5859,1.2314-0.8799,2.1113-0.8799
			c0.7852,0,1.4033,0.2656,1.8564,0.7979C265.042,40.8026,265.2686,41.5291,265.2686,42.4491z M264.2559,42.1522
			c-0.0146-0.5938-0.1543-1.0459-0.4199-1.3555c-0.2666-0.3105-0.6484-0.4648-1.1475-0.4648c-0.4873,0-0.8887,0.1611-1.2041,0.4834
			c-0.3154,0.3232-0.502,0.7705-0.5605,1.3428L264.2559,42.1522z"/>
		<path class="st1" d="M273.168,39.8368v0.9902c-0.29-0.1689-0.5811-0.2959-0.875-0.3799c-0.293-0.084-0.5918-0.127-0.8965-0.127
			c-0.458,0-0.7998,0.0742-1.0254,0.2236c-0.2256,0.1484-0.3379,0.374-0.3379,0.6787c0,0.2754,0.084,0.4805,0.2529,0.6162
			c0.168,0.1357,0.5879,0.2676,1.2588,0.3955l0.4072,0.0771c0.5029,0.0957,0.8828,0.2861,1.1416,0.5723s0.3877,0.6582,0.3877,1.1162
			c0,0.6094-0.2168,1.085-0.6494,1.4277s-1.0332,0.5137-1.8037,0.5137c-0.3047,0-0.623-0.0322-0.957-0.0957
			c-0.334-0.0645-0.6943-0.1602-1.083-0.2891v-1.0449c0.377,0.1943,0.7383,0.3398,1.083,0.4375
			c0.3447,0.0967,0.6709,0.1455,0.9795,0.1455c0.4473,0,0.793-0.0908,1.0391-0.2725s0.3682-0.4355,0.3682-0.7617
			c0-0.4688-0.4492-0.7939-1.3467-0.9736l-0.0439-0.0107l-0.3799-0.0771c-0.583-0.1133-1.0088-0.3047-1.2764-0.5742
			s-0.4014-0.6377-0.4014-1.1035c0-0.5898,0.2002-1.0459,0.5996-1.3662c0.3994-0.3213,0.9697-0.4814,1.7109-0.4814
			c0.3291,0,0.6465,0.0303,0.9512,0.0908S272.874,39.7157,273.168,39.8368z"/>
		<path class="st1" d="M276.707,39.6219h1.001l1.0723,4.9775l0.8799-3.1787h0.8643l0.8906,3.1787l1.0723-4.9775h1.001
			l-1.4404,6.1602h-0.9688l-0.9844-3.377l-0.9785,3.377h-0.9678L276.707,39.6219z"/>
		<path class="st1" d="M287.0205,39.6219h2.5898v5.374h2.0078v0.7861h-5.0273v-0.7861h2.0078V40.409h-1.5781V39.6219z
			 M288.5986,37.2244h1.0117v1.2813h-1.0117V37.2244z"/>
		<path class="st1" d="M299.9443,45.3856c0,0.9248-0.2188,1.625-0.6553,2.1016s-1.0781,0.7148-1.9248,0.7148
			c-0.2783,0-0.5703-0.0254-0.874-0.0771c-0.3047-0.0508-0.6094-0.126-0.9131-0.2256v-1.001
			c0.3594,0.1689,0.6855,0.2939,0.9785,0.374c0.2939,0.0811,0.5635,0.1211,0.8086,0.1211c0.5469,0,0.9443-0.1484,1.1934-0.4453
			c0.25-0.2969,0.374-0.7686,0.374-1.4131V45.491v-0.6875c-0.1611,0.3438-0.3809,0.6006-0.6602,0.7695
			c-0.2783,0.1689-0.6172,0.2529-1.0176,0.2529c-0.7178,0-1.292-0.2881-1.7207-0.8633c-0.4297-0.5762-0.6436-1.3457-0.6436-2.3105
			c0-0.9678,0.2139-1.7393,0.6436-2.3154c0.4287-0.5752,1.0029-0.8633,1.7207-0.8633c0.3965,0,0.7324,0.0791,1.0068,0.2363
			c0.2754,0.1582,0.499,0.4014,0.6709,0.7314v-0.7969h1.0127V45.3856z M298.9316,42.6522c0-0.7588-0.123-1.335-0.3711-1.7295
			c-0.2471-0.3936-0.6074-0.5908-1.0811-0.5908c-0.4941,0-0.8721,0.1973-1.1328,0.5908c-0.2598,0.3945-0.3906,0.9707-0.3906,1.7295
			c0,0.7598,0.1318,1.3379,0.3936,1.7354c0.2617,0.3984,0.6426,0.5967,1.1416,0.5967c0.4648,0,0.8223-0.1992,1.0693-0.5996
			C298.8086,43.9852,298.9316,43.408,298.9316,42.6522z"/>
	</g>
</g>
</svg>
