<?xml version="1.0" encoding="utf-8"?>
<!-- Generator: Adobe Illustrator 24.0.2, SVG Export Plug-In . SVG Version: 6.00 Build 0)  -->
<svg version="1.1"
	 id="svg2" xmlns:cc="http://creativecommons.org/ns#" xmlns:dc="http://purl.org/dc/elements/1.1/" xmlns:inkscape="http://www.inkscape.org/namespaces/inkscape" xmlns:rdf="http://www.w3.org/1999/02/22-rdf-syntax-ns#" xmlns:sodipodi="http://sodipodi.sourceforge.net/DTD/sodipodi-0.dtd" xmlns:svg="http://www.w3.org/2000/svg"
	 xmlns="http://www.w3.org/2000/svg" xmlns:xlink="http://www.w3.org/1999/xlink" x="0px" y="0px" viewBox="0 0 67.0723 67.0723"
	 style="enable-background:new 0 0 67.0723 67.0723;" xml:space="preserve">
<style type="text/css">
	.st0{fill:#3864AC;}
	.st1{fill:#FFFFFF;}
</style>
<g>
	<circle class="st0" cx="33.5361" cy="33.5361" r="33.5361"/>
	<polygon class="st1" points="41.5186,35.8494 38.7366,31.8112 34.5394,31.8112 34.4805,28.7117 32.9742,28.7117 32.9566,31.8112 
		28.8595,31.8112 26.3601,35.8494 5.1339,35.8494 5.1339,32.8815 24.2412,32.8815 26.7105,28.7117 29.6753,28.7117 29.6753,25.1831 
		32.182,25.1831 32.182,15.2312 35.421,15.2312 35.421,25.1831 37.7653,25.1831 37.7653,28.7117 40.5328,28.7117 43.2591,32.8815 
		61.4845,32.8815 61.4845,35.8494 	"/>
	<g>
		<path class="st1" d="M26.6909,52.748V41.1387h2.2939v9.5879h4.9067v2.0215H26.6909z"/>
	</g>
	<path class="st1" d="M37.9492,47.6546c-1.1561-0.4399-1.9389-0.9028-2.3484-1.3879c-0.4095-0.4843-0.6147-1.1361-0.6147-1.9551
		c0-1.0524,0.337-1.8796,1.0109-2.481c0.6739-0.6014,1.5997-0.902,2.7764-0.902c0.534,0,1.0679,0.0607,1.6019,0.1829
		c0.534,0.1215,1.0627,0.3022,1.5863,0.5399v2.2395c-0.4925-0.3466-0.9931-0.611-1.5012-0.7924
		c-0.508-0.1814-1.0109-0.2725-1.5086-0.2725c-0.5547,0-0.9798,0.1118-1.2753,0.3347c-0.2955,0.2229-0.4429,0.5414-0.4429,0.9561
		c0,0.3214,0.1074,0.5873,0.3229,0.7969c0.2148,0.2103,0.6643,0.4421,1.3486,0.6961l0.9879,0.3733
		c0.9331,0.3422,1.6197,0.7961,2.0603,1.3605c0.4406,0.5658,0.6613,1.2782,0.6613,2.1388c0,1.1716-0.3459,2.0462-1.0383,2.6246
		c-0.6917,0.5777-3.1533,0.6408-3.1533,0.6408l-1.7145,0.0198l-1.7226-0.0198v-2.0011l1.854,0.0196l1.7923-0.0238
		c0,0,0.9658-0.0134,1.2768-0.2696c0.311-0.257,0.3802-0.3965,0.3802-0.8586c0-0.3466-0.1037-0.6517-0.311-0.9131
		c-0.2074-0.2622-0.508-0.468-0.902-0.6184L37.9492,47.6546z"/>
</g>
</svg>
